<svg xmlns="http://www.w3.org/2000/svg" viewBox="0 0 900 700" width="900" height="700">
  <defs>
    <linearGradient id="bg" x1="0" x2="1">
      <stop offset="0" stop-color="#d8d8d8"/>
      <stop offset="1" stop-color="#fafafa"/>
    </linearGradient>
    <linearGradient id="g2" x1="0" x2="1">
      <stop offset="0" stop-color="#c1801a"/>
      <stop offset="0.5" stop-color="#efcd77"/>
      <stop offset="1" stop-color="#b26b1c"/>
    </linearGradient>
  </defs>
  <rect width="900" height="700" fill="#f5f5f5"/>
  <g transform="translate(60,30)">
    <rect x="0" y="0" width="780" height="630" rx="28" fill="url(#bg)" stroke="#d3a54f" stroke-width="16"/>
    <path d="M0 120 L780 120" stroke="#d3a54f" stroke-width="6" opacity="0.9"/>
    <path d="M0 490 L780 490" stroke="#d3a54f" stroke-width="6" opacity="0.9"/>
    <g transform="translate(70,90)">
      <text x="0" y="0" font-size="38" fill="#7d0f1a" font-family="Arial" font-weight="700">BAJAJ CAPITAL</text>
      <path d="M8 35 H160" stroke="#7d0f1a" stroke-width="4" opacity="0.7"/>
    </g>
    <g transform="translate(560,125)">
      <circle cx="0" cy="0" r="78" fill="url(#g2)" stroke="#7d0f1a" stroke-width="7"/>
      <circle cx="0" cy="0" r="62" fill="#1b1b1b" stroke="#f1d67d" stroke-width="5"/>
      <text x="0" y="18" text-anchor="middle" font-size="56" font-family="Georgia" font-weight="700" fill="#f9dc7e">★</text>
      <text x="0" y="122" text-anchor="middle" font-size="22" font-family="Arial" font-weight="700" fill="#f9dc7e">ACHIEVER</text>
      <text x="0" y="148" text-anchor="middle" font-size="16" font-family="Arial" fill="#f9dc7e">AWARD</text>
      <text x="0" y="178" text-anchor="middle" font-size="18" font-family="Arial" fill="#f9dc7e">2024-25</text>
    </g>
    <g>
      <path d="M150 255 L640 255" stroke="#1b1b1b" stroke-width="3"/>
      <text x="390" y="215" text-anchor="middle" font-size="54" font-weight="700" fill="#8e0d18" font-family="Georgia">CERTIFICATE</text>
      <text x="390" y="290" text-anchor="middle" font-size="30" fill="#23170f" font-family="Georgia" font-style="italic">OF APPRECIATION</text>
      <g transform="translate(390,345)">
        <g fill="#f0c84e">
          <path d="M-155 0 L-120 -25 L-85 0 L-120 25 Z"/>
          <path d="M-50 0 L-15 -25 L20 0 L-15 25 Z"/>
          <path d="M55 0 L90 -25 L125 0 L90 25 Z"/>
          <path d="M160 0 L195 -25 L230 0 L195 25 Z"/>
        </g>
      </g>
      <text x="390" y="420" text-anchor="middle" font-size="58" font-family="Georgia" font-weight="700" fill="#2d160d">Rahul Kunal</text>
      <path d="M220 470 H560" stroke="#2d160d" stroke-width="2"/>
      <text x="390" y="515" text-anchor="middle" font-size="30" fill="#2d160d" font-family="Georgia">Congratulations you are an Achiever!</text>
    </g>
    <g transform="translate(180,560)">
      <text x="0" y="0" font-size="24" fill="#2d160d" font-family="Georgia">Rachit Mongia</text>
      <text x="0" y="28" font-size="18" fill="#2d160d" font-family="Georgia">EVP &amp; CBO - FPC</text>
    </g>
    <g transform="translate(540,560)">
      <text x="0" y="0" font-size="24" fill="#2d160d" font-family="Georgia">Venkatesh Naidu</text>
      <text x="0" y="28" font-size="18" fill="#2d160d" font-family="Georgia">CEO (BCIBL)</text>
    </g>
  </g>
</svg>
